# xmcd CD database file
#
# Track frame offsets:
#	150
#	14852
#	30620
#	49074
#	62599
#	66413
#	72321
#	85066
#	99699
#	112702
#	124430
#	131731
#	142983
#	149535
#	153167
#	168929
#	178495
#	189424
#	202934
#	212362
#	228630
#	241629
#	246533
#	261157
#	269729
#	281618
#
# Disc length: 3922 seconds
#
# Revision: 1
# Processed by: cddbd v1.5.2PL0 Copyright (c) Steve Scherf et al.
# Submitted via: CDex 1.51
#
DISCID=8d0f501a
DTITLE=Various Artist - ZM-VS-CTV
DYEAR=1900
DGENRE=Blues
TTITLE0=Auf Wiedersehen Pet - That's Livin' Alright
TTITLE1=Baywatch - I'm Always Here
TTITLE2=Boon - Hi Ho Silver
TTITLE3=Bread - Home
TTITLE4=Cbeebies - Bedtime Song
TTITLE5=Dads Army - Who Do You Think You Are Kidding Mr Hitler
TTITLE6=The Family Ness - You'll Never Find A Nessie In The Zoo
TTITLE7=Friends - I'll Be There For You
TTITLE8=Happy Days - Happy Days
TTITLE9=Hi De Hi - Main Theme
TTITLE10=Hi De Hi - Goodnight Campers
TTITLE11=In Sickness And In Health - In Sickness And In Health
TTITLE12=Jim'll Fix It - Jim'll Fix It
TTITLE13=Max And Paddys - Road To Nowhere
TTITLE14=Minder - I Could Be So Good For You
TTITLE15=Morecambe And Wise - Bring me Sunshine
TTITLE16=New Tricks - It's Alright
TTITLE17=One Foot In The Grave - One Foot In The Grave
TTITLE18=Only Fools And Horses - Only Fools And Horses (Hooky Street)
TTITLE19=Postman Pat - Postman Pat
TTITLE20=Prisoner Cell Block H - On The Inside
TTITLE21=Red Dwarf - Red Dwarf
TTITLE22=Surprise Surprise - Surprise Surprise
TTITLE23=Thomas and Friends - Thomas And Friends
TTITLE24=The Wombles - The Wombling Song
TTITLE25=You Rang M'Lord - You Rang M'Lord
EXTD=
EXTT0=
EXTT1=
EXTT2=
EXTT3=
EXTT4=
EXTT5=
EXTT6=
EXTT7=
EXTT8=
EXTT9=
EXTT10=
EXTT11=
EXTT12=
EXTT13=
EXTT14=
EXTT15=
EXTT16=
EXTT17=
EXTT18=
EXTT19=
EXTT20=
EXTT21=
EXTT22=
EXTT23=
EXTT24=
EXTT25=
PLAYORDER=
